<svg width="720" height="1480" viewBox="0 0 720 1480" fill="none" xmlns="http://www.w3.org/2000/svg">
  <defs>
    <linearGradient id="bg" x1="0" y1="0" x2="720" y2="1480">
      <stop offset="0" stop-color="#111A2C"/>
      <stop offset="1" stop-color="#0B1020"/>
    </linearGradient>
    <linearGradient id="accent" x1="120" y1="280" x2="620" y2="760">
      <stop offset="0" stop-color="#FF5B3D"/>
      <stop offset="1" stop-color="#FF9340"/>
    </linearGradient>
  </defs>
  <rect width="720" height="1480" rx="64" fill="url(#bg)"/>
  <rect x="48" y="56" width="624" height="64" rx="20" fill="#151F35"/>
  <circle cx="88" cy="88" r="14" fill="#FF5B3D"/>
  <rect x="120" y="76" width="190" height="24" rx="12" fill="#2A3757"/>
  <rect x="504" y="76" width="130" height="24" rx="12" fill="#23304D"/>

  <rect x="48" y="152" width="300" height="184" rx="28" fill="url(#accent)"/>
  <text x="84" y="216" fill="white" font-size="30" font-family="Manrope, Arial, sans-serif" font-weight="700">Bugun</text>
  <text x="84" y="260" fill="white" font-size="52" font-family="Space Grotesk, Arial, sans-serif" font-weight="700">6 Ders</text>
  <text x="84" y="300" fill="#FFE3D6" font-size="24" font-family="Manrope, Arial, sans-serif">2 online · 4 yuzyuze</text>

  <rect x="372" y="152" width="300" height="184" rx="28" fill="#16233D"/>
  <text x="404" y="214" fill="#AFC2E3" font-size="26" font-family="Manrope, Arial, sans-serif">Haftalik gelir</text>
  <text x="404" y="266" fill="#FFFFFF" font-size="50" font-family="Space Grotesk, Arial, sans-serif" font-weight="700">24.750 TL</text>
  <rect x="404" y="286" width="198" height="18" rx="9" fill="#2E4269"/>

  <rect x="48" y="370" width="624" height="220" rx="28" fill="#151F35"/>
  <text x="84" y="432" fill="#FFFFFF" font-size="34" font-family="Manrope, Arial, sans-serif" font-weight="700">Hizli Islemler</text>
  <rect x="84" y="468" width="172" height="88" rx="18" fill="#233250"/>
  <rect x="274" y="468" width="172" height="88" rx="18" fill="#233250"/>
  <rect x="464" y="468" width="172" height="88" rx="18" fill="#233250"/>
  <text x="112" y="521" fill="#FFB18D" font-size="22" font-family="Manrope, Arial, sans-serif">Ders Ekle</text>
  <text x="306" y="521" fill="#9FD2FF" font-size="22" font-family="Manrope, Arial, sans-serif">Ogrenci</text>
  <text x="502" y="521" fill="#B9FFCF" font-size="22" font-family="Manrope, Arial, sans-serif">Rapor</text>

  <rect x="48" y="620" width="624" height="760" rx="28" fill="#151F35"/>
  <text x="84" y="686" fill="#FFFFFF" font-size="34" font-family="Manrope, Arial, sans-serif" font-weight="700">Ders Takvimi</text>

  <rect x="84" y="726" width="552" height="128" rx="22" fill="#1E2B46"/>
  <circle cx="128" cy="790" r="26" fill="#FF5B3D"/>
  <text x="170" y="780" fill="#FFFFFF" font-size="26" font-family="Manrope, Arial, sans-serif" font-weight="600">Ayt Matematik</text>
  <text x="170" y="816" fill="#9AB3D6" font-size="22" font-family="Manrope, Arial, sans-serif">18:00 - 19:30 · Mert K.</text>

  <rect x="84" y="874" width="552" height="128" rx="22" fill="#1E2B46"/>
  <circle cx="128" cy="938" r="26" fill="#4A8CFF"/>
  <text x="170" y="928" fill="#FFFFFF" font-size="26" font-family="Manrope, Arial, sans-serif" font-weight="600">TYT Geometri</text>
  <text x="170" y="964" fill="#9AB3D6" font-size="22" font-family="Manrope, Arial, sans-serif">20:00 - 21:00 · Ece T.</text>

  <rect x="84" y="1022" width="552" height="128" rx="22" fill="#1E2B46"/>
  <circle cx="128" cy="1086" r="26" fill="#2ECC92"/>
  <text x="170" y="1076" fill="#FFFFFF" font-size="26" font-family="Manrope, Arial, sans-serif" font-weight="600">Kimya Tekrar</text>
  <text x="170" y="1112" fill="#9AB3D6" font-size="22" font-family="Manrope, Arial, sans-serif">21:30 - 22:15 · Asli D.</text>

  <rect x="84" y="1180" width="552" height="158" rx="22" fill="#1A2741"/>
  <text x="112" y="1240" fill="#FFFFFF" font-size="28" font-family="Manrope, Arial, sans-serif" font-weight="700">AI Onerisi</text>
  <text x="112" y="1280" fill="#A8BEDF" font-size="22" font-family="Manrope, Arial, sans-serif">Yarin icin 20 soruluk mini deneme olustur.</text>
</svg>
